<svg xmlns="http://www.w3.org/2000/svg" width="162.27061462402344" height="244.8264923095703" viewBox="-2.7008705139160156 -21.592069625854492 162.27061462402344 244.8264923095703"><title>Neo4j Graph Visualization</title><desc>Created using Neo4j (http://www.neo4j.com/)</desc><g class="layer relationships"><g class="relationship" transform="translate(130.56974630958317 7.407930663536662) rotate(522.5671195473037)"><path class="outline" fill="#A5ABB6" stroke="none" d="M 21.40063509461097,12.933012701892217 L 21.90063509461097,12.06698729810778 A 59.59868884657019 59.59868884657019 0 0 0 23.319232402318207,12.860421419808723 L 22.843034894204553,13.739759769516247 A 60.59868884657019 60.59868884657019 0 0 1 21.40063509461097,12.933012701892217 Z M 77.20943724851314,15.42089622473948 L 76.78847999322987,14.513815749134153 A 59.59868884657019 59.59868884657019 0 0 0 78.25338979842084,13.809546418857096 L 76.91677933964631,11.123755570430035 L 84.74300352121307,11.138420489787713 L 80.03553707678687,17.39060088342651 L 78.69892661801234,14.70481003499945 A 60.59868884657019 60.59868884657019 0 0 1 77.20943724851314,15.42089622473948"/><text text-anchor="middle" pointer-events="none" font-size="8px" fill="#000000" x="49.842475195112115" y="23.52298524185663" transform="rotate(180 49.842475195112115 20.52298524185663)" font-family="sans-serif">PublicTrans…</text></g><g class="relationship" transform="translate(28.365539220592023 39.50121153131161) rotate(451.1101811999123)"><path class="outline" fill="#A5ABB6" stroke="none" d="M 25 0.5 L 40.15842701288474 0.5 L 40.15842701288474 -0.5 L 25 -0.5 Z M 59.49436451288474 0.5 L 74.65279152576947 0.5 L 74.65279152576947 3.5 L 81.65279152576947 0 L 74.65279152576947 -3.5 L 74.65279152576947 -0.5 L 59.49436451288474 -0.5 Z"/><text text-anchor="middle" pointer-events="none" font-size="8px" fill="#000000" x="49.82639576288474" y="3" transform="rotate(180 49.82639576288474 0)" font-family="sans-serif">trek</text></g><g class="relationship" transform="translate(26.299130206626764 146.1339827324121) rotate(386.64813644485514)"><path class="outline" fill="#A5ABB6" stroke="none" d="M 25 0.5 L 40.45449820951042 0.5 L 40.45449820951042 -0.5 L 25 -0.5 Z M 59.79043570951042 0.5 L 75.24493391902084 0.5 L 75.24493391902084 3.5 L 82.24493391902084 0 L 75.24493391902084 -3.5 L 75.24493391902084 -0.5 L 59.79043570951042 -0.5 Z"/><text text-anchor="middle" pointer-events="none" font-size="8px" fill="#000000" x="50.12246695951042" y="3" font-family="sans-serif">trek</text></g><g class="relationship" transform="translate(130.56974630958317 7.407930663536662) rotate(522.5671195473037)"><path class="outline" fill="#A5ABB6" stroke="none" d="M 25 0.5 L 40.39432821238595 0.5 L 40.39432821238595 -0.5 L 25 -0.5 Z M 59.73026571238595 0.5 L 75.1245939247719 0.5 L 75.1245939247719 3.5 L 82.1245939247719 0 L 75.1245939247719 -3.5 L 75.1245939247719 -0.5 L 59.73026571238595 -0.5 Z"/><text text-anchor="middle" pointer-events="none" font-size="8px" fill="#000000" x="50.06229696238595" y="3" transform="rotate(180 50.06229696238595 0)" font-family="sans-serif">trek</text></g><g class="relationship" transform="translate(130.56974630958317 7.407930663536662) rotate(522.5671195473037)"><path class="outline" fill="#A5ABB6" stroke="none" d="M 21.40063509461097,-12.933012701892217 L 21.90063509461097,-12.06698729810778 A 59.59868884657019 59.59868884657019 0 0 1 39.04052383696998,-18.69167194851451 L 38.82811218956753,-19.66885222463953 A 60.59868884657019 60.59868884657019 0 0 0 21.40063509461097,-12.933012701892217 Z M 60.88856777273644,-20.351013164000634 L 60.73693762314517,-19.362575863138844 A 59.59868884657019 59.59868884657019 0 0 1 78.25338979842084,-13.809546418857096 L 76.91677933964631,-11.123755570430035 L 84.74300352121307,-11.138420489787713 L 80.03553707678687,-17.39060088342651 L 78.69892661801234,-14.70481003499945 A 60.59868884657019 60.59868884657019 0 0 0 60.88856777273644,-20.351013164000634"/><text text-anchor="middle" pointer-events="none" font-size="8px" fill="#000000" x="49.84247519511211" y="-17.52298524185663" transform="rotate(180 49.84247519511211 -20.52298524185663)" font-family="sans-serif">road</text></g></g><g class="layer nodes"><g class="node" transform="translate(130.56974630958317,7.407930663536662)"><circle class="outline" cx="0" cy="0" r="25" fill="#F16667" stroke="#eb2728" stroke-width="2px"/><text text-anchor="middle" pointer-events="none" font-family="sans-serif" dy="1.5625" font-size="25" fill="#FFFFFF"/><text text-anchor="middle" pointer-events="none" x="0" y="5" font-size="10px" fill="#FFFFFF" font-family="sans-serif"> Darjeeling</text></g><g class="node" transform="translate(122.15226500486455,194.23442348554866)"><circle class="outline" cx="0" cy="0" r="25" fill="#8DCC93" stroke="#5db665" stroke-width="2px"/><text text-anchor="middle" pointer-events="none" font-family="sans-serif" dy="1.5625" font-size="25" fill="#2A2C34"/><text text-anchor="middle" pointer-events="none" x="0" y="5" font-size="10px" fill="#2A2C34" font-family="sans-serif"> Sandak…</text></g><g class="node" transform="translate(28.365539220592023,39.50121153131161)"><circle class="outline" cx="0" cy="0" r="25" fill="#F16667" stroke="#eb2728" stroke-width="2px"/><text text-anchor="middle" pointer-events="none" font-family="sans-serif" dy="1.5625" font-size="25" fill="#FFFFFF"/><text text-anchor="middle" pointer-events="none" x="0" y="5" font-size="10px" fill="#FFFFFF" font-family="sans-serif"> Rimbik</text></g><g class="node" transform="translate(26.299130206626764,146.1339827324121)"><circle class="outline" cx="0" cy="0" r="25" fill="#D9C8AE" stroke="#c0a378" stroke-width="2px"/><text text-anchor="middle" pointer-events="none" font-family="sans-serif" dy="1.5625" font-size="25" fill="#2A2C34"/><text text-anchor="middle" pointer-events="none" x="0" y="5" font-size="10px" fill="#2A2C34" font-family="sans-serif"> BhikeBh…</text></g></g></svg>