<svg xmlns="http://www.w3.org/2000/svg" width="162.3841094970703" height="200.3180389404297" viewBox="9.771514892578125 -6.4585113525390625 162.3841094970703 200.3180389404297"><title>Neo4j Graph Visualization</title><desc>Created using Neo4j (http://www.neo4j.com/)</desc><g class="layer relationships"><g class="relationship" transform="translate(69.96444597845904 164.85952439878935) rotate(252.93797036707133)"><path class="outline" fill="#A5ABB6" stroke="none" d="M 24.018736134675446,-6.953439040707552 L 24.277555179777966,-5.987513214418485 A 104.32910005887486 104.32910005887486 0 0 1 32.56970783752078,-7.8510014377193045 L 32.39036951882214,-8.834788898224033 A 105.32910005887486 105.32910005887486 0 0 0 24.018736134675446,-6.953439040707552 Z M 66.8400654238058,-9.386758867130453 L 66.69233652284977,-8.397730974792566 A 104.32910005887486 104.32910005887486 0 0 1 75.03993286961585,-6.800852992869859 L 74.3567096953686,-3.8796877982648854 L 81.969855519402,-5.693526452060432 L 75.95089710194553,-10.695739919009823 L 75.26767392769827,-7.774574724404849 A 105.32910005887486 105.32910005887486 0 0 0 66.8400654238058,-9.386758867130453"/><text text-anchor="middle" pointer-events="none" font-size="8px" fill="#000000" x="49.600505396271004" y="-7.028987807187562" transform="rotate(180 49.600505396271004 -10.028987807187562)" font-family="sans-serif">FLIGHT</text></g><g class="relationship" transform="translate(38.771513319957265 63.22570421537423) rotate(349.0607320422703)"><path class="outline" fill="#A5ABB6" stroke="none" d="M 12.066987298107785,21.900635094610966 L 12.933012701892222,21.400635094610966 A 44.28103122179208 44.28103122179208 0 0 0 32.43072007335884,39.32827917269614 L 32.00501204325542,40.23313975483322 A 45.28103122179208 45.28103122179208 0 0 1 12.066987298107785,21.900635094610966 Z M 65.93095233839804,42.10595529773779 L 65.60742963369401,41.15973489025285 A 44.28103122179208 44.28103122179208 0 0 0 86.95997232057769,25.487149406719592 L 84.54278866267205,23.710291741076688 L 91.5088374833954,20.143197149213602 L 90.18288386445187,27.85629296091013 L 87.76570020654623,26.079435295267228 A 45.28103122179208 45.28103122179208 0 0 1 65.93095233839804,42.10595529773779"/><text text-anchor="middle" pointer-events="none" font-size="8px" fill="#000000" x="48.81321897011905" y="46.97307390959911" font-family="sans-serif">FLIGHT</text></g><g class="relationship" transform="translate(38.771513319957265 63.22570421537423) rotate(349.0607320422703)"><path class="outline" fill="#A5ABB6" stroke="none" d="M 21.40063509461097,12.933012701892217 L 21.90063509461097,12.06698729810778 A 58.76175110225019 58.76175110225019 0 0 0 32.699172212634345,16.9240295220942 L 32.38294034267582,17.87271145215429 A 59.76175110225019 59.76175110225019 0 0 1 21.40063509461097,12.933012701892217 Z M 66.61536857917673,18.938874985506402 L 66.35878543610241,17.972352822961696 A 58.76175110225019 58.76175110225019 0 0 0 77.43864410101253,13.796709756255494 L 76.10322779884545,11.110324955094946 L 83.92944468741499,11.128469184725724 L 79.21919917056864,17.37855615780289 L 77.88378286840157,14.692171356642342 A 59.76175110225019 59.76175110225019 0 0 1 66.61536857917673,18.938874985506402"/><text text-anchor="middle" pointer-events="none" font-size="8px" fill="#000000" x="49.43670734597486" y="23.41084808544158" font-family="sans-serif">FLIGHT</text></g><g class="relationship" transform="translate(38.771513319957265 63.22570421537423) rotate(349.0607320422703)"><path class="outline" fill="#A5ABB6" stroke="none" d="M 25 0.5 L 32.43533609854313 0.5 L 32.43533609854313 -0.5 L 25 -0.5 Z M 66.88064859854313 0.5 L 74.31598469708626 0.5 L 74.31598469708626 3.5 L 81.31598469708626 0 L 74.31598469708626 -3.5 L 74.31598469708626 -0.5 L 66.88064859854313 -0.5 Z"/><text text-anchor="middle" pointer-events="none" font-size="8px" fill="#000000" x="49.65799234854313" y="3" font-family="sans-serif">FLIGHT</text></g><g class="relationship" transform="translate(38.771513319957265 63.22570421537423) rotate(432.93797036707133)"><path class="outline" fill="#A5ABB6" stroke="none" d="M 24.018736134675446,-6.953439040707552 L 24.277555179777966,-5.987513214418485 A 104.32910005887486 104.32910005887486 0 0 1 32.56970783752078,-7.8510014377193045 L 32.39036951882214,-8.834788898224033 A 105.32910005887486 105.32910005887486 0 0 0 24.018736134675446,-6.953439040707552 Z M 66.8400654238058,-9.386758867130453 L 66.69233652284977,-8.397730974792566 A 104.32910005887486 104.32910005887486 0 0 1 75.03993286961585,-6.800852992869859 L 74.3567096953686,-3.8796877982648854 L 81.969855519402,-5.693526452060432 L 75.95089710194553,-10.695739919009823 L 75.26767392769827,-7.774574724404849 A 105.32910005887486 105.32910005887486 0 0 0 66.8400654238058,-9.386758867130453"/><text text-anchor="middle" pointer-events="none" font-size="8px" fill="#000000" x="49.600505396271004" y="-7.028987807187562" font-family="sans-serif">FLIGHT</text></g><g class="relationship" transform="translate(38.771513319957265 63.22570421537423) rotate(349.0607320422703)"><path class="outline" fill="#A5ABB6" stroke="none" d="M 21.40063509461097,-12.933012701892217 L 21.90063509461097,-12.06698729810778 A 58.76175110225019 58.76175110225019 0 0 1 32.699172212634345,-16.9240295220942 L 32.38294034267582,-17.87271145215429 A 59.76175110225019 59.76175110225019 0 0 0 21.40063509461097,-12.933012701892217 Z M 66.61536857917673,-18.938874985506402 L 66.35878543610241,-17.972352822961696 A 58.76175110225019 58.76175110225019 0 0 1 77.43864410101253,-13.796709756255494 L 76.10322779884545,-11.110324955094946 L 83.92944468741499,-11.128469184725724 L 79.21919917056864,-17.37855615780289 L 77.88378286840157,-14.692171356642342 A 59.76175110225019 59.76175110225019 0 0 0 66.61536857917673,-18.938874985506402"/><text text-anchor="middle" pointer-events="none" font-size="8px" fill="#000000" x="49.43670734597486" y="-17.41084808544158" font-family="sans-serif">FLIGHT</text></g><g class="relationship" transform="translate(38.771513319957265 63.22570421537423) rotate(349.0607320422703)"><path class="outline" fill="#A5ABB6" stroke="none" d="M 12.066987298107785,-21.900635094610966 L 12.933012701892222,-21.400635094610966 A 44.28103122179208 44.28103122179208 0 0 1 32.43072007335885,-39.32827917269614 L 32.005012043255434,-40.23313975483323 A 45.28103122179208 45.28103122179208 0 0 0 12.066987298107785,-21.900635094610966 Z M 65.93095233839804,-42.10595529773779 L 65.60742963369401,-41.15973489025285 A 44.28103122179208 44.28103122179208 0 0 1 86.95997232057769,-25.487149406719592 L 84.54278866267205,-23.710291741076688 L 91.5088374833954,-20.143197149213602 L 90.18288386445187,-27.85629296091013 L 87.76570020654623,-26.079435295267228 A 45.28103122179208 45.28103122179208 0 0 0 65.93095233839804,-42.10595529773779"/><text text-anchor="middle" pointer-events="none" font-size="8px" fill="#000000" x="48.81321897011905" y="-40.97307390959911" font-family="sans-serif">FLIGHT</text></g></g><g class="layer nodes"><g class="node" transform="translate(69.96444597845904,164.85952439878935)"><circle class="outline" cx="0" cy="0" r="25" fill="#ECB5C9" stroke="#da7298" stroke-width="2px"/><text text-anchor="middle" pointer-events="none" font-family="sans-serif" dy="1.5625" font-size="25" fill="#2A2C34"/><text text-anchor="middle" pointer-events="none" x="0" y="5" font-size="10px" fill="#2A2C34" font-family="sans-serif"> MSN</text></g><g class="node" transform="translate(143.15561798510362,43.050291075444385)"><circle class="outline" cx="0" cy="0" r="25" fill="#ECB5C9" stroke="#da7298" stroke-width="2px"/><text text-anchor="middle" pointer-events="none" font-family="sans-serif" dy="1.5625" font-size="25" fill="#2A2C34"/><text text-anchor="middle" pointer-events="none" x="0" y="5" font-size="10px" fill="#2A2C34" font-family="sans-serif"> GRR</text></g><g class="node" transform="translate(38.771513319957265,63.22570421537423)"><circle class="outline" cx="0" cy="0" r="25" fill="#ECB5C9" stroke="#da7298" stroke-width="2px"/><text text-anchor="middle" pointer-events="none" font-family="sans-serif" dy="1.5625" font-size="25" fill="#2A2C34"/><text text-anchor="middle" pointer-events="none" x="0" y="5" font-size="10px" fill="#2A2C34" font-family="sans-serif"> ORD</text></g></g></svg>