<svg xmlns="http://www.w3.org/2000/svg" width="408.1064147949219" height="399.87591552734375" viewBox="-105.0615463256836 -113.63627624511719 408.1064147949219 399.87591552734375"><title>Neo4j Graph Visualization</title><desc>Created using Neo4j (http://www.neo4j.com/)</desc><g class="layer relationships"><g class="relationship" transform="translate(121.92315303102511 -84.63627364344325) rotate(392.7086694813834)"><path class="outline" fill="#A5ABB6" stroke="none" d="M 24.018736134675446,-6.953439040707552 L 24.277555179777966,-5.987513214418485 A 107.74738893911179 107.74738893911179 0 0 1 39.53816632273246,-8.916537687824757 L 39.42098051155989,-9.90964769465171 A 108.74738893911179 108.74738893911179 0 0 0 24.018736134675446,-6.953439040707552 Z M 61.49354356545124,-10.258036468517147 L 61.407758406293205,-9.261722809839213 A 107.74738893911179 107.74738893911179 0 0 1 76.75320695274611,-6.815778057714573 L 76.06858965396351,-3.8949392819161495 L 83.68260031273952,-5.705144156521596 L 77.66603001778957,-10.710229758779136 L 76.98141271900697,-7.789390982980713 A 108.74738893911179 108.74738893911179 0 0 0 61.49354356545124,-10.258036468517147"/><text text-anchor="middle" pointer-events="none" font-size="8px" fill="#000000" x="50.456289864727395" y="-7.145435245967747" font-family="sans-serif">road</text></g><g class="relationship" transform="translate(212.81677650787833 -26.264180990179234) rotate(417.40647472242495)"><path class="outline" fill="#A5ABB6" stroke="none" d="M 21.40063509461097,-12.933012701892217 L 21.90063509461097,-12.06698729810778 A 66.35248917024276 66.35248917024276 0 0 1 30.666225485327818,-16.303096153269827 L 30.298331914194815,-17.23296405803857 A 67.35248917024276 67.35248917024276 0 0 0 21.40063509461097,-12.933012701892217 Z M 76.15453336602945,-18.573494346566363 L 75.84158793600949,-17.623723238441038 A 66.35248917024276 66.35248917024276 0 0 1 84.83966898260357,-13.906905969656567 L 83.49400178872447,-11.225641379334014 L 91.32023089233604,-11.21389328232577 L 86.63389190777569,-17.48192542341997 L 85.2882247138966,-14.800660833097417 A 67.35248917024276 67.35248917024276 0 0 0 76.15453336602945,-18.573494346566363"/><text text-anchor="middle" pointer-events="none" font-size="8px" fill="#000000" x="53.123392144444665" y="-18.42798785002671" font-family="sans-serif">twowheeler</text></g><g class="relationship" transform="translate(274.0448528406719 69.49933430033265) rotate(506.5139935222088)"><path class="outline" fill="#A5ABB6" stroke="none" d="M 21.40063509461097,12.933012701892217 L 21.90063509461097,12.06698729810778 A 66.66299358483946 66.66299358483946 0 0 0 30.811414688059028,16.36403209120421 L 30.4450837466216,17.294516718345122 A 67.66299358483946 67.66299358483946 0 0 1 21.40063509461097,12.933012701892217 Z M 76.30839366284135,18.631890038210628 L 75.99690490570583,17.6816402004426 A 66.66299358483946 66.66299358483946 0 0 0 85.14293421466576,13.911131641039349 L 83.79687394707958,11.23006436175936 L 91.6231012442501,11.217168896551575 L 86.93768123811401,17.485888013412666 L 85.59162097052783,14.804820734132678 A 67.66299358483946 67.66299358483946 0 0 1 76.30839366284135,18.631890038210628"/><text text-anchor="middle" pointer-events="none" font-size="8px" fill="#000000" x="53.27449227978082" y="24.469598642547865" transform="rotate(180 53.27449227978082 21.469598642547865)" font-family="sans-serif">twowheeler</text></g><g class="relationship" transform="translate(178.99542130385728 132.37780184652325) rotate(481.0810020278705)"><path class="outline" fill="#A5ABB6" stroke="none" d="M 25 0.5 L 47.50192212828024 0.5 L 47.50192212828024 -0.5 L 25 -0.5 Z M 66.83785962828024 0.5 L 89.33978175656048 0.5 L 89.33978175656048 3.5 L 96.33978175656048 0 L 89.33978175656048 -3.5 L 89.33978175656048 -0.5 L 66.83785962828024 -0.5 Z"/><text text-anchor="middle" pointer-events="none" font-size="8px" fill="#000000" x="57.16989087828024" y="3" transform="rotate(180 57.16989087828024 0)" font-family="sans-serif">trek</text></g><g class="relationship" transform="translate(121.92315303102511 -84.63627364344325) rotate(392.7086694813834)"><path class="outline" fill="#A5ABB6" stroke="none" d="M 24.018736134675446,6.953439040707552 L 24.277555179777966,5.987513214418485 A 107.74738893911179 107.74738893911179 0 0 0 40.86163240528114,9.064418453224476 L 40.75672963962438,10.058900936608453 A 108.74738893911179 108.74738893911179 0 0 1 24.018736134675446,6.953439040707552 Z M 60.153749425829595,10.365059488447685 L 60.08028450858902,9.36776168641721 A 107.74738893911179 107.74738893911179 0 0 0 76.75320695274611,6.815778057714573 L 76.06858965396351,3.8949392819161495 L 83.68260031273952,5.705144156521596 L 77.66603001778957,10.710229758779136 L 76.98141271900697,7.789390982980713 A 108.74738893911179 108.74738893911179 0 0 1 60.153749425829595,10.365059488447685"/><text text-anchor="middle" pointer-events="none" font-size="8px" fill="#000000" x="50.45628986472741" y="13.145435245967747" font-family="sans-serif">trek</text></g><g class="relationship" transform="translate(212.81677650787833 -26.264180990179234) rotate(417.40647472242495)"><path class="outline" fill="#A5ABB6" stroke="none" d="M 25 0.5 L 42.32619186417863 0.5 L 42.32619186417863 -0.5 L 25 -0.5 Z M 64.33791061417864 0.5 L 81.66410247835726 0.5 L 81.66410247835726 3.5 L 88.66410247835726 0 L 81.66410247835726 -3.5 L 81.66410247835726 -0.5 L 64.33791061417864 -0.5 Z"/><text text-anchor="middle" pointer-events="none" font-size="8px" fill="#000000" x="53.33205123917863" y="3" font-family="sans-serif">road</text></g><g class="relationship" transform="translate(212.81677650787833 -26.264180990179234) rotate(417.40647472242495)"><path class="outline" fill="#A5ABB6" stroke="none" d="M 21.40063509461097,12.933012701892217 L 21.90063509461097,12.06698729810778 A 66.35248917024276 66.35248917024276 0 0 0 43.600076943700245,19.95644325902424 L 43.42710976674045,20.941370848085768 A 67.35248917024276 67.35248917024276 0 0 1 21.40063509461097,12.933012701892217 Z M 62.83154260271671,21.508627383183892 L 62.71640709668688,20.515277588171458 A 66.35248917024276 66.35248917024276 0 0 0 84.83966898260357,13.906905969656567 L 83.49400178872447,11.225641379334014 L 91.32023089233604,11.21389328232577 L 86.63389190777569,17.48192542341997 L 85.2882247138966,14.800660833097417 A 67.35248917024276 67.35248917024276 0 0 1 62.83154260271671,21.508627383183892"/><text text-anchor="middle" pointer-events="none" font-size="8px" fill="#000000" x="53.12339214444467" y="24.42798785002671" font-family="sans-serif">trek</text></g><g class="relationship" transform="translate(274.0448528406719 69.49933430033265) rotate(506.5139935222088)"><path class="outline" fill="#A5ABB6" stroke="none" d="M 25 0.5 L 42.476804910791685 0.5 L 42.476804910791685 -0.5 L 25 -0.5 Z M 64.48852366079169 0.5 L 81.96532857158337 0.5 L 81.96532857158337 3.5 L 88.96532857158337 0 L 81.96532857158337 -3.5 L 81.96532857158337 -0.5 L 64.48852366079169 -0.5 Z"/><text text-anchor="middle" pointer-events="none" font-size="8px" fill="#000000" x="53.482664285791685" y="3" transform="rotate(180 53.482664285791685 0)" font-family="sans-serif">road</text></g><g class="relationship" transform="translate(274.0448528406719 69.49933430033265) rotate(506.5139935222088)"><path class="outline" fill="#A5ABB6" stroke="none" d="M 21.40063509461097,-12.933012701892217 L 21.90063509461097,-12.06698729810778 A 66.66299358483946 66.66299358483946 0 0 1 43.75033615307837,-20.001899164761483 L 43.57809972749181,-20.986954804662687 A 67.66299358483946 67.66299358483946 0 0 0 21.40063509461097,-12.933012701892217 Z M 62.982532925374635,-21.552787739384726 L 62.86798876130914,-20.559369582474687 A 66.66299358483946 66.66299358483946 0 0 1 85.14293421466576,-13.911131641039349 L 83.79687394707958,-11.23006436175936 L 91.6231012442501,-11.217168896551575 L 86.93768123811401,-17.485888013412666 L 85.59162097052783,-14.804820734132678 A 67.66299358483946 67.66299358483946 0 0 0 62.982532925374635,-21.552787739384726"/><text text-anchor="middle" pointer-events="none" font-size="8px" fill="#000000" x="53.274492279780816" y="-18.469598642547865" transform="rotate(180 53.274492279780816 -21.469598642547865)" font-family="sans-serif">trek</text></g><g class="relationship" transform="translate(121.92315303102511 -84.63627364344325) rotate(455.6868631144871)"><path class="outline" fill="#A5ABB6" stroke="none" d="M 21.40063509461097,12.933012701892217 L 21.90063509461097,12.06698729810778 A 64.32329700173594 64.32329700173594 0 0 0 42.618888973767014,19.658575897674012 L 42.440984619433266,20.64262368142697 A 65.32329700173594 65.32329700173594 0 0 1 21.40063509461097,12.933012701892217 Z M 61.84534009253808,21.219354902272258 L 61.7261933737671,20.22647824356479 A 64.32329700173594 64.32329700173594 0 0 0 82.85874746298468,13.878768504412983 L 81.51569765631533,11.196191904051794 L 89.34193449827235,11.192081722244675 L 84.64948053854383,17.45553730489457 L 83.30643073187447,14.77296070453338 A 65.32329700173594 65.32329700173594 0 0 1 61.84534009253808,21.219354902272258"/><text text-anchor="middle" pointer-events="none" font-size="8px" fill="#000000" x="52.13647279933529" y="24.156062134293194" transform="rotate(180 52.13647279933529 21.156062134293194)" font-family="sans-serif">trek</text></g><g class="relationship" transform="translate(110.85494452218397 26.51072980524235) rotate(417.2329724478234)"><path class="outline" fill="#A5ABB6" stroke="none" d="M 25 0.5 L 49.782332120264954 0.5 L 49.782332120264954 -0.5 L 25 -0.5 Z M 69.11826962026495 0.5 L 93.90060174052991 0.5 L 93.90060174052991 3.5 L 100.90060174052991 0 L 93.90060174052991 -3.5 L 93.90060174052991 -0.5 L 69.11826962026495 -0.5 Z"/><text text-anchor="middle" pointer-events="none" font-size="8px" fill="#000000" x="59.450300870264954" y="3" font-family="sans-serif">trek</text></g><g class="relationship" transform="translate(121.92315303102511 -84.63627364344325) rotate(455.6868631144871)"><path class="outline" fill="#A5ABB6" stroke="none" d="M 25 0.5 L 41.34251037564113 0.5 L 41.34251037564113 -0.5 L 25 -0.5 Z M 63.35422912564113 0.5 L 79.69673950128227 0.5 L 79.69673950128227 3.5 L 86.69673950128227 0 L 79.69673950128227 -3.5 L 79.69673950128227 -0.5 L 63.35422912564113 -0.5 Z"/><text text-anchor="middle" pointer-events="none" font-size="8px" fill="#000000" x="52.34836975064113" y="3" transform="rotate(180 52.34836975064113 0)" font-family="sans-serif">road</text></g><g class="relationship" transform="translate(121.92315303102511 -84.63627364344325) rotate(455.6868631144871)"><path class="outline" fill="#A5ABB6" stroke="none" d="M 21.40063509461097,-12.933012701892217 L 21.90063509461097,-12.06698729810778 A 64.32329700173594 64.32329700173594 0 0 1 22.895647956752907,-12.629729358237675 L 22.411116891159597,-13.50450341276548 A 65.32329700173594 65.32329700173594 0 0 0 21.40063509461097,-12.933012701892217 Z M 82.26379122806931,-15.283429076595255 L 81.83206917901472,-14.38142238462445 A 64.32329700173594 64.32329700173594 0 0 1 82.85874746298468,-13.878768504412983 L 81.51569765631533,-11.196191904051794 L 89.34193449827235,-11.192081722244675 L 84.64948053854383,-17.45553730489457 L 83.30643073187447,-14.77296070453338 A 65.32329700173594 65.32329700173594 0 0 0 82.26379122806931,-15.283429076595255"/><text text-anchor="middle" pointer-events="none" font-size="8px" fill="#000000" x="52.1364727993353" y="-18.156062134293194" transform="rotate(180 52.1364727993353 -21.156062134293194)" font-family="sans-serif">PublicTransport</text></g><g class="relationship" transform="translate(110.85494452218397 26.51072980524235) rotate(524.5098733119054)"><path class="outline" fill="#A5ABB6" stroke="none" d="M 24.018736134675446,-6.953439040707552 L 24.277555179777966,-5.987513214418485 A 138.46935816302957 138.46935816302957 0 0 1 35.177749132211616,-8.441536963282886 L 34.99764926438441,-9.425185293535435 A 139.46935816302957 139.46935816302957 0 0 0 24.018736134675446,-6.953439040707552 Z M 81.4082696895197,-10.07086362066093 L 81.25560384424394,-9.082585755034955 A 138.46935816302957 138.46935816302957 0 0 1 92.21984810448212,-6.932746560468192 L 91.5243053585298,-4.0144901823284815 L 99.14503677780017,-5.796189549602716 L 93.14723843241856,-10.823755064654472 L 92.45169568646624,-7.905498686514762 A 139.46935816302957 139.46935816302957 0 0 0 81.4082696895197,-10.07086362066093"/><text text-anchor="middle" pointer-events="none" font-size="8px" fill="#000000" x="58.182866353247874" y="-8.192295231280099" transform="rotate(180 58.182866353247874 -11.192295231280099)" font-family="sans-serif">twowheeler</text></g><g class="relationship" transform="translate(-8.12425537003744 59.48450367193476) rotate(431.3675021529474)"><path class="outline" fill="#A5ABB6" stroke="none" d="M 24.018736134675446,-6.953439040707552 L 24.277555179777966,-5.987513214418485 A 112.59751890685435 112.59751890685435 0 0 1 28.75170606100308,-7.088755377512143 L 28.532622801596922,-8.06446154508923 A 113.59751890685435 113.59751890685435 0 0 0 24.018736134675446,-6.953439040707552 Z M 74.86981778226344,-8.78067975267858 L 74.68099428959817,-7.798668709656297 A 112.59751890685435 112.59751890685435 0 0 1 79.18704277518312,-6.836230423167074 L 78.50051507400875,-3.915840087009896 L 86.11570817641226,-5.721064176453076 L 80.1024130434156,-10.730084204709978 L 79.41588534224122,-7.8096938685528 A 113.59751890685435 113.59751890685435 0 0 0 74.86981778226344,-8.78067975267858"/><text text-anchor="middle" pointer-events="none" font-size="8px" fill="#000000" x="51.672036536991484" y="-7.31067308544965" font-family="sans-serif">twowheeler</text></g><g class="relationship" transform="translate(27.164902189156628 164.14770005604288) rotate(398.971419562484)"><path class="outline" fill="#A5ABB6" stroke="none" d="M 24.018736134675446,6.953439040707552 L 24.277555179777966,5.987513214418485 A 121.09849459777102 121.09849459777102 0 0 0 30.853336697532015,7.554163054589608 L 30.6488187528651,8.53302586944632 A 122.09849459777102 122.09849459777102 0 0 1 24.018736134675446,6.953439040707552 Z M 77.01623292811705,9.22454283510109 L 76.84099668885237,8.240016420804167 A 121.09849459777102 121.09849459777102 0 0 0 83.46057283610398,6.870160252558473 L 82.77087588288461,3.95051676186994 L 90.38802380658045,5.747474610161377 L 84.38016877372979,10.763018240143184 L 83.69047182051042,7.843374749454651 A 122.09849459777102 122.09849459777102 0 0 1 77.01623292811705,9.22454283510109"/><text text-anchor="middle" pointer-events="none" font-size="8px" fill="#000000" x="53.80685105322496" y="13.600323452766986" font-family="sans-serif">twowheeler</text></g><g class="relationship" transform="translate(110.85494452218397 26.51072980524235) rotate(524.5098733119054)"><path class="outline" fill="#A5ABB6" stroke="none" d="M 24.018736134675446,6.953439040707552 L 24.277555179777966,5.987513214418485 A 138.46935816302957 138.46935816302957 0 0 0 48.56999712531798,10.22352664276184 L 48.48661358643727,11.22004417168128 A 139.46935816302957 139.46935816302957 0 0 1 24.018736134675446,6.953439040707552 Z M 67.87459443454226,11.48977551605185 L 67.81896549710942,10.491324004299742 A 138.46935816302957 138.46935816302957 0 0 0 92.21984810448212,6.932746560468192 L 91.5243053585298,4.0144901823284815 L 99.14503677780017,5.796189549602716 L 93.14723843241856,10.823755064654472 L 92.45169568646624,7.905498686514762 A 139.46935816302957 139.46935816302957 0 0 1 67.87459443454226,11.48977551605185"/><text text-anchor="middle" pointer-events="none" font-size="8px" fill="#000000" x="58.18286635324793" y="14.192295231280099" transform="rotate(180 58.18286635324793 11.192295231280099)" font-family="sans-serif">trek</text></g><g class="relationship" transform="translate(-8.12425537003744 59.48450367193476) rotate(431.3675021529474)"><path class="outline" fill="#A5ABB6" stroke="none" d="M 24.018736134675446,6.953439040707552 L 24.277555179777966,5.987513214418485 A 112.59751890685435 112.59751890685435 0 0 0 42.07375764067326,9.251058473017565 L 41.97299005739395,10.24596846601193 A 113.59751890685435 113.59751890685435 0 0 1 24.018736134675446,6.953439040707552 Z M 61.3684495148193,10.54575746303182 L 61.298478690745455,9.548208424749276 A 112.59751890685435 112.59751890685435 0 0 0 79.18704277518312,6.836230423167074 L 78.50051507400875,3.915840087009896 L 86.11570817641226,5.721064176453076 L 80.1024130434156,10.730084204709978 L 79.41588534224122,7.8096938685528 A 113.59751890685435 113.59751890685435 0 0 1 61.3684495148193,10.54575746303182"/><text text-anchor="middle" pointer-events="none" font-size="8px" fill="#000000" x="51.672036536991506" y="13.31067308544965" font-family="sans-serif">trek</text></g><g class="relationship" transform="translate(27.164902189156628 164.14770005604288) rotate(398.971419562484)"><path class="outline" fill="#A5ABB6" stroke="none" d="M 24.018736134675446,-6.953439040707552 L 24.277555179777966,-5.987513214418485 A 121.09849459777102 121.09849459777102 0 0 1 44.20300703576705,-9.574439820024608 L 44.108727210761124,-10.5699855570939 A 122.09849459777102 122.09849459777102 0 0 0 24.018736134675446,-6.953439040707552 Z M 63.50156638997256,-10.859207579567538 L 63.43701674502394,-9.861293082560408 A 121.09849459777102 121.09849459777102 0 0 1 83.46057283610398,-6.870160252558473 L 82.77087588288461,-3.95051676186994 L 90.38802380658045,-5.747474610161377 L 84.38016877372979,-10.763018240143184 L 83.69047182051042,-7.843374749454651 A 122.09849459777102 122.09849459777102 0 0 0 63.50156638997256,-10.859207579567538"/><text text-anchor="middle" pointer-events="none" font-size="8px" fill="#000000" x="53.80685105322493" y="-7.600323452766986" font-family="sans-serif">trek</text></g><g class="relationship" transform="translate(110.85494452218397 26.51072980524235) rotate(332.6341524986517)"><path class="outline" fill="#A5ABB6" stroke="none" d="M 25 0.5 L 44.237184309946784 0.5 L 44.237184309946784 -0.5 L 25 -0.5 Z M 63.573121809946784 0.5 L 82.81030611989357 0.5 L 82.81030611989357 3.5 L 89.81030611989357 0 L 82.81030611989357 -3.5 L 82.81030611989357 -0.5 L 63.573121809946784 -0.5 Z"/><text text-anchor="middle" pointer-events="none" font-size="8px" fill="#000000" x="53.905153059946784" y="3" font-family="sans-serif">trek</text></g><g class="relationship" transform="translate(-8.12425537003744 59.48450367193476) rotate(484.9133653581017)"><path class="outline" fill="#A5ABB6" stroke="none" d="M 24.018736134675446,-6.953439040707552 L 24.277555179777966,-5.987513214418485 A 129.0187861425218 129.0187861425218 0 0 1 32.82064749004772,-7.968068144726729 L 32.62804432377724,-8.949344874473539 A 130.0187861425218 130.0187861425218 0 0 0 24.018736134675446,-6.953439040707552 Z M 79.01769621631671,-9.619229038345111 L 78.85350746605839,-8.632800098031296 A 129.0187861425218 129.0187861425218 0 0 1 87.45022563344585,-6.899750530284076 L 86.75776481480793,-3.9807613191612785 L 94.3766105958387,-5.770506821982714 L 88.37350672496308,-10.791736145114474 L 87.68104590632515,-7.872746933991675 A 130.0187861425218 130.0187861425218 0 0 0 79.01769621631671,-9.619229038345111"/><text text-anchor="middle" pointer-events="none" font-size="8px" fill="#000000" x="55.79996879648474" y="-7.870219933594996" transform="rotate(180 55.79996879648474 -10.870219933594996)" font-family="sans-serif">twowheeler</text></g><g class="relationship" transform="translate(-76.06154830590268 156.82193348347042) rotate(364.0593565668024)"><path class="outline" fill="#A5ABB6" stroke="none" d="M 21.40063509461097,12.933012701892217 L 21.90063509461097,12.06698729810778 A 55.82920969652276 55.82920969652276 0 0 0 25.81443619904153,14.124437976157914 L 25.384539306818002,15.027315964623988 A 56.82920969652276 56.82920969652276 0 0 1 21.40063509461097,12.933012701892217 Z M 70.92082220492622,16.482172537162825 L 70.54943603969956,15.5536940418393 A 55.82920969652276 55.82920969652276 0 0 0 74.58658969658549,13.750271537725629 L 73.25549348968777,11.061743522624711 L 81.08167109963725,11.09246839081441 L 76.3613846391158,17.334975557860183 L 75.03028843221807,14.646447542759267 A 56.82920969652276 56.82920969652276 0 0 1 70.92082220492622,16.482172537162825"/><text text-anchor="middle" pointer-events="none" font-size="8px" fill="#000000" x="48.01647373992372" y="23.017955709676528" font-family="sans-serif">twowheeler</text></g><g class="relationship" transform="translate(-8.12425537003744 59.48450367193476) rotate(484.9133653581017)"><path class="outline" fill="#A5ABB6" stroke="none" d="M 24.018736134675446,6.953439040707552 L 24.277555179777966,5.987513214418485 A 129.0187861425218 129.0187861425218 0 0 0 46.191673716902194,9.872108553749399 L 46.10270682428324,10.868143137495224 A 130.0187861425218 130.0187861425218 0 0 1 24.018736134675446,6.953439040707552 Z M 65.49324734437354,11.148149895325787 L 65.43307778451988,10.149961724655014 A 129.0187861425218 129.0187861425218 0 0 0 87.45022563344585,6.899750530284076 L 86.75776481480793,3.9807613191612785 L 94.3766105958387,5.770506821982714 L 88.37350672496308,10.791736145114474 L 87.68104590632515,7.872746933991675 A 130.0187861425218 130.0187861425218 0 0 1 65.49324734437354,11.148149895325787"/><text text-anchor="middle" pointer-events="none" font-size="8px" fill="#000000" x="55.79996879648478" y="13.870219933594996" transform="rotate(180 55.79996879648478 10.870219933594996)" font-family="sans-serif">trek</text></g><g class="relationship" transform="translate(-76.06154830590268 156.82193348347042) rotate(364.0593565668024)"><path class="outline" fill="#A5ABB6" stroke="none" d="M 25 0.5 L 37.23717623773911 0.5 L 37.23717623773911 -0.5 L 25 -0.5 Z M 59.24889498773911 0.5 L 71.48607122547821 0.5 L 71.48607122547821 3.5 L 78.48607122547821 0 L 71.48607122547821 -3.5 L 71.48607122547821 -0.5 L 59.24889498773911 -0.5 Z"/><text text-anchor="middle" pointer-events="none" font-size="8px" fill="#000000" x="48.24303561273911" y="3" font-family="sans-serif">road</text></g><g class="relationship" transform="translate(-76.06154830590268 156.82193348347042) rotate(364.0593565668024)"><path class="outline" fill="#A5ABB6" stroke="none" d="M 21.40063509461097,-12.933012701892217 L 21.90063509461097,-12.06698729810778 A 55.82920969652276 55.82920969652276 0 0 1 38.52832142296372,-18.393849731039722 L 38.32615272702011,-19.37320044369605 A 56.82920969652276 56.82920969652276 0 0 0 21.40063509461097,-12.933012701892217 Z M 57.728188937039896,-19.993083712691558 L 57.58894806009608,-19.002825171608514 A 55.82920969652276 55.82920969652276 0 0 1 74.58658969658549,-13.750271537725629 L 73.25549348968777,-11.061743522624711 L 81.08167109963725,-11.09246839081441 L 76.3613846391158,-17.334975557860183 L 75.03028843221807,-14.646447542759267 A 56.82920969652276 56.82920969652276 0 0 0 57.728188937039896,-19.993083712691558"/><text text-anchor="middle" pointer-events="none" font-size="8px" fill="#000000" x="48.01647373992373" y="-17.017955709676528" font-family="sans-serif">trek</text></g><g class="relationship" transform="translate(-76.06154830590268 156.82193348347042) rotate(413.90106268662083)"><path class="outline" fill="#A5ABB6" stroke="none" d="M 25 0.5 L 48.97163213637165 0.5 L 48.97163213637165 -0.5 L 25 -0.5 Z M 68.30756963637165 0.5 L 92.2792017727433 0.5 L 92.2792017727433 3.5 L 99.2792017727433 0 L 92.2792017727433 -3.5 L 92.2792017727433 -0.5 L 68.30756963637165 -0.5 Z"/><text text-anchor="middle" pointer-events="none" font-size="8px" fill="#000000" x="58.63960088637165" y="3" font-family="sans-serif">trek</text></g><g class="relationship" transform="translate(-2.838557799236927 257.2396294067039) rotate(350.0349898483512)"><path class="outline" fill="#A5ABB6" stroke="none" d="M 25 0.5 L 47.341090142431426 0.5 L 47.341090142431426 -0.5 L 25 -0.5 Z M 66.67702764243143 0.5 L 89.01811778486285 0.5 L 89.01811778486285 3.5 L 96.01811778486285 0 L 89.01811778486285 -3.5 L 89.01811778486285 -0.5 L 66.67702764243143 -0.5 Z"/><text text-anchor="middle" pointer-events="none" font-size="8px" fill="#000000" x="57.009058892431426" y="3" font-family="sans-serif">trek</text></g></g><g class="layer nodes"><g class="node" transform="translate(121.92315303102511,-84.63627364344325)"><circle class="outline" cx="0" cy="0" r="25" fill="#F16667" stroke="#eb2728" stroke-width="2px"/><text text-anchor="middle" pointer-events="none" font-family="sans-serif" dy="1.5625" font-size="25" fill="#FFFFFF"/><text text-anchor="middle" pointer-events="none" x="0" y="5" font-size="10px" fill="#FFFFFF" font-family="sans-serif"> Darjeeling</text></g><g class="node" transform="translate(116.35383397641726,236.29783924946318)"><circle class="outline" cx="0" cy="0" r="25" fill="#8DCC93" stroke="#5db665" stroke-width="2px"/><text text-anchor="middle" pointer-events="none" font-family="sans-serif" dy="1.5625" font-size="25" fill="#2A2C34"/><text text-anchor="middle" pointer-events="none" x="0" y="5" font-size="10px" fill="#2A2C34" font-family="sans-serif"> Sandak…</text></g><g class="node" transform="translate(212.81677650787833,-26.264180990179234)"><circle class="outline" cx="0" cy="0" r="25" fill="#D9C8AE" stroke="#c0a378" stroke-width="2px"/><text text-anchor="middle" pointer-events="none" font-family="sans-serif" dy="1.5625" font-size="25" fill="#2A2C34"/><text text-anchor="middle" pointer-events="none" x="0" y="5" font-size="10px" fill="#2A2C34" font-family="sans-serif"> Tumbling</text></g><g class="node" transform="translate(274.0448528406719,69.49933430033265)"><circle class="outline" cx="0" cy="0" r="25" fill="#D9C8AE" stroke="#c0a378" stroke-width="2px"/><text text-anchor="middle" pointer-events="none" font-family="sans-serif" dy="1.5625" font-size="25" fill="#2A2C34"/><text text-anchor="middle" pointer-events="none" x="0" y="5" font-size="10px" fill="#2A2C34" font-family="sans-serif"> Gairibus</text></g><g class="node" transform="translate(178.99542130385728,132.37780184652325)"><circle class="outline" cx="0" cy="0" r="25" fill="#D9C8AE" stroke="#c0a378" stroke-width="2px"/><text text-anchor="middle" pointer-events="none" font-family="sans-serif" dy="1.5625" font-size="25" fill="#2A2C34"/><text text-anchor="middle" pointer-events="none" x="0" y="5" font-size="10px" fill="#2A2C34" font-family="sans-serif"> BhikeBh…</text></g><g class="node" transform="translate(110.85494452218397,26.51072980524235)"><circle class="outline" cx="0" cy="0" r="25" fill="#F16667" stroke="#eb2728" stroke-width="2px"/><text text-anchor="middle" pointer-events="none" font-family="sans-serif" dy="1.5625" font-size="25" fill="#FFFFFF"/><text text-anchor="middle" pointer-events="none" x="0" y="5" font-size="10px" fill="#FFFFFF" font-family="sans-serif"> Rimbik</text></g><g class="node" transform="translate(-8.12425537003744,59.48450367193476)"><circle class="outline" cx="0" cy="0" r="25" fill="#D9C8AE" stroke="#c0a378" stroke-width="2px"/><text text-anchor="middle" pointer-events="none" font-family="sans-serif" dy="1.5625" font-size="25" fill="#2A2C34"/><text text-anchor="middle" pointer-events="none" x="0" y="5" font-size="10px" fill="#2A2C34" font-family="sans-serif"> Sirikhola</text></g><g class="node" transform="translate(27.164902189156628,164.14770005604288)"><circle class="outline" cx="0" cy="0" r="25" fill="#D9C8AE" stroke="#c0a378" stroke-width="2px"/><text text-anchor="middle" pointer-events="none" font-family="sans-serif" dy="1.5625" font-size="25" fill="#2A2C34"/><text text-anchor="middle" pointer-events="none" x="0" y="5" font-size="10px" fill="#2A2C34" font-family="sans-serif"> Gurdum</text></g><g class="node" transform="translate(-76.06154830590268,156.82193348347042)"><circle class="outline" cx="0" cy="0" r="25" fill="#D9C8AE" stroke="#c0a378" stroke-width="2px"/><text text-anchor="middle" pointer-events="none" font-family="sans-serif" dy="1.5625" font-size="25" fill="#2A2C34"/><text text-anchor="middle" pointer-events="none" x="0" y="5" font-size="10px" fill="#2A2C34" font-family="sans-serif"> Rammam</text></g><g class="node" transform="translate(-2.838557799236927,257.2396294067039)"><circle class="outline" cx="0" cy="0" r="25" fill="#8DCC93" stroke="#5db665" stroke-width="2px"/><text text-anchor="middle" pointer-events="none" font-family="sans-serif" dy="1.5625" font-size="25" fill="#2A2C34"/><text text-anchor="middle" pointer-events="none" x="0" y="5" font-size="10px" fill="#2A2C34" font-family="sans-serif"> Sabargr…</text></g></g></svg>