<svg xmlns="http://www.w3.org/2000/svg" width="288.1514587402344" height="283.60174560546875" viewBox="-51.28569793701172 -41.89189147949219 288.1514587402344 283.60174560546875"><title>Neo4j Graph Visualization</title><desc>Created using Neo4j (http://www.neo4j.com/)</desc><g class="layer relationships"><g class="relationship" transform="translate(151.6217189867113 205.78114883834238) rotate(239.20523424760768)"><path class="outline" fill="#A5ABB6" stroke="none" d="M 25 0.5 L 32.52074238778634 0.5 L 32.52074238778634 -0.5 L 25 -0.5 Z M 78.08324238778634 0.5 L 85.60398477557268 0.5 L 85.60398477557268 3.5 L 92.60398477557268 0 L 85.60398477557268 -3.5 L 85.60398477557268 -0.5 L 78.08324238778634 -0.5 Z"/><text text-anchor="middle" pointer-events="none" font-size="8px" fill="#000000" x="55.30199238778634" y="3" transform="rotate(180 55.30199238778634 0)" font-family="sans-serif">ACTED_IN</text></g><g class="relationship" transform="translate(207.8657748470142 120.75550131627581) rotate(187.82166783049746)"><path class="outline" fill="#A5ABB6" stroke="none" d="M 25 0.5 L 37.38663661647665 0.5 L 37.38663661647665 -0.5 L 25 -0.5 Z M 73.16007411647665 0.5 L 85.5467107329533 0.5 L 85.5467107329533 3.5 L 92.5467107329533 0 L 85.5467107329533 -3.5 L 85.5467107329533 -0.5 L 73.16007411647665 -0.5 Z"/><text text-anchor="middle" pointer-events="none" font-size="8px" fill="#000000" x="55.27335536647665" y="3" transform="rotate(180 55.27335536647665 0)" font-family="sans-serif">WROTE</text></g><g class="relationship" transform="translate(181.52055418162084 30.017579729195162) rotate(500.3256236561381)"><path class="outline" fill="#A5ABB6" stroke="none" d="M 25 0.5 L 37.148831981416215 0.5 L 37.148831981416215 -0.5 L 25 -0.5 Z M 72.92226948141621 0.5 L 85.07110146283243 0.5 L 85.07110146283243 3.5 L 92.07110146283243 0 L 85.07110146283243 -3.5 L 85.07110146283243 -0.5 L 72.92226948141621 -0.5 Z"/><text text-anchor="middle" pointer-events="none" font-size="8px" fill="#000000" x="55.035550731416215" y="3" transform="rotate(180 55.035550731416215 0)" font-family="sans-serif">WROTE</text></g><g class="relationship" transform="translate(97.28374705866919 -12.89189158429593) rotate(452.8568473511584)"><path class="outline" fill="#A5ABB6" stroke="none" d="M 25 0.5 L 37.511697966264634 0.5 L 37.511697966264634 -0.5 L 25 -0.5 Z M 73.28513546626463 0.5 L 85.79683343252927 0.5 L 85.79683343252927 3.5 L 92.79683343252927 0 L 85.79683343252927 -3.5 L 85.79683343252927 -0.5 L 73.28513546626463 -0.5 Z"/><text text-anchor="middle" pointer-events="none" font-size="8px" fill="#000000" x="55.398416716264634" y="3" transform="rotate(180 55.398416716264634 0)" font-family="sans-serif">WROTE</text></g><g class="relationship" transform="translate(1.5044405960453695 29.716608260450133) rotate(399.850076116148)"><path class="outline" fill="#A5ABB6" stroke="none" d="M 25 0.5 L 31.60974873855988 0.5 L 31.60974873855988 -0.5 L 25 -0.5 Z M 78.50037373855989 0.5 L 85.11012247711976 0.5 L 85.11012247711976 3.5 L 92.11012247711976 0 L 85.11012247711976 -3.5 L 85.11012247711976 -0.5 L 78.50037373855989 -0.5 Z"/><text text-anchor="middle" pointer-events="none" font-size="8px" fill="#000000" x="55.05506123855988" y="3" font-family="sans-serif">DIRECTED</text></g><g class="relationship" transform="translate(-22.285696351690643 132.63087501808312) rotate(346.22598168230195)"><path class="outline" fill="#A5ABB6" stroke="none" d="M 25 0.5 L 32.25118687177259 0.5 L 32.25118687177259 -0.5 L 25 -0.5 Z M 77.81368687177259 0.5 L 85.06487374354518 0.5 L 85.06487374354518 3.5 L 92.06487374354518 0 L 85.06487374354518 -3.5 L 85.06487374354518 -0.5 L 77.81368687177259 -0.5 Z"/><text text-anchor="middle" pointer-events="none" font-size="8px" fill="#000000" x="55.03243687177259" y="3" font-family="sans-serif">ACTED_IN</text></g><g class="relationship" transform="translate(47.263051212575334 212.70986021614675) rotate(292.24343650359657)"><path class="outline" fill="#A5ABB6" stroke="none" d="M 25 0.5 L 32.03400476772038 0.5 L 32.03400476772038 -0.5 L 25 -0.5 Z M 77.59650476772038 0.5 L 84.63050953544077 0.5 L 84.63050953544077 3.5 L 91.63050953544077 0 L 84.63050953544077 -3.5 L 84.63050953544077 -0.5 L 77.59650476772038 -0.5 Z"/><text text-anchor="middle" pointer-events="none" font-size="8px" fill="#000000" x="54.81525476772038" y="3" font-family="sans-serif">ACTED_IN</text></g></g><g class="layer nodes"><g class="node" transform="translate(91.41266635639249,104.75854138608628)"><circle class="outline" cx="0" cy="0" r="25" fill="#F79767" stroke="#f36924" stroke-width="2px"/><text text-anchor="middle" pointer-events="none" font-family="sans-serif" dy="1.5625" font-size="25" fill="#FFFFFF"/><text text-anchor="middle" pointer-events="none" font-family="sans-serif" dy="1.5625" font-size="25" fill="#FFFFFF"/><text text-anchor="middle" pointer-events="none" font-family="sans-serif" dy="1.5625" font-size="25" fill="#FFFFFF"/><text text-anchor="middle" pointer-events="none" x="0" y="-5" font-size="10px" fill="#FFFFFF" font-family="sans-serif"> Captain</text><text text-anchor="middle" pointer-events="none" x="0" y="5" font-size="10px" fill="#FFFFFF" font-family="sans-serif"> America:</text><text text-anchor="middle" pointer-events="none" x="0" y="15" font-size="10px" fill="#FFFFFF" font-family="sans-serif"> The Fi…</text></g><g class="node" transform="translate(151.6217189867113,205.78114883834238)"><circle class="outline" cx="0" cy="0" r="25" fill="#57C7E3" stroke="#23b3d7" stroke-width="2px"/><text text-anchor="middle" pointer-events="none" font-family="sans-serif" dy="1.5625" font-size="25" fill="#2A2C34"/><text text-anchor="middle" pointer-events="none" font-family="sans-serif" dy="1.5625" font-size="25" fill="#2A2C34"/><text text-anchor="middle" pointer-events="none" x="0" y="0" font-size="10px" fill="#2A2C34" font-family="sans-serif"> Hugo</text><text text-anchor="middle" pointer-events="none" x="0" y="10" font-size="10px" fill="#2A2C34" font-family="sans-serif"> Weaving</text></g><g class="node" transform="translate(207.8657748470142,120.75550131627581)"><circle class="outline" cx="0" cy="0" r="25" fill="#57C7E3" stroke="#23b3d7" stroke-width="2px"/><text text-anchor="middle" pointer-events="none" font-family="sans-serif" dy="1.5625" font-size="25" fill="#2A2C34"/><text text-anchor="middle" pointer-events="none" font-family="sans-serif" dy="1.5625" font-size="25" fill="#2A2C34"/><text text-anchor="middle" pointer-events="none" x="0" y="0" font-size="10px" fill="#2A2C34" font-family="sans-serif"> Stephen</text><text text-anchor="middle" pointer-events="none" x="0" y="10" font-size="10px" fill="#2A2C34" font-family="sans-serif"> McFeely</text></g><g class="node" transform="translate(181.52055418162084,30.017579729195162)"><circle class="outline" cx="0" cy="0" r="25" fill="#57C7E3" stroke="#23b3d7" stroke-width="2px"/><text text-anchor="middle" pointer-events="none" font-family="sans-serif" dy="1.5625" font-size="25" fill="#2A2C34"/><text text-anchor="middle" pointer-events="none" font-family="sans-serif" dy="1.5625" font-size="25" fill="#2A2C34"/><text text-anchor="middle" pointer-events="none" x="0" y="0" font-size="10px" fill="#2A2C34" font-family="sans-serif"> Joe</text><text text-anchor="middle" pointer-events="none" x="0" y="10" font-size="10px" fill="#2A2C34" font-family="sans-serif"> Simon</text></g><g class="node" transform="translate(97.28374705866919,-12.89189158429593)"><circle class="outline" cx="0" cy="0" r="25" fill="#57C7E3" stroke="#23b3d7" stroke-width="2px"/><text text-anchor="middle" pointer-events="none" font-family="sans-serif" dy="1.5625" font-size="25" fill="#2A2C34"/><text text-anchor="middle" pointer-events="none" x="0" y="5" font-size="10px" fill="#2A2C34" font-family="sans-serif"> Christop…</text></g><g class="node" transform="translate(1.5044405960453695,29.716608260450133)"><circle class="outline" cx="0" cy="0" r="25" fill="#57C7E3" stroke="#23b3d7" stroke-width="2px"/><text text-anchor="middle" pointer-events="none" font-family="sans-serif" dy="1.5625" font-size="25" fill="#2A2C34"/><text text-anchor="middle" pointer-events="none" font-family="sans-serif" dy="1.5625" font-size="25" fill="#2A2C34"/><text text-anchor="middle" pointer-events="none" x="0" y="0" font-size="10px" fill="#2A2C34" font-family="sans-serif"> Joe</text><text text-anchor="middle" pointer-events="none" x="0" y="10" font-size="10px" fill="#2A2C34" font-family="sans-serif"> Johnston</text></g><g class="node" transform="translate(-22.285696351690643,132.63087501808312)"><circle class="outline" cx="0" cy="0" r="25" fill="#57C7E3" stroke="#23b3d7" stroke-width="2px"/><text text-anchor="middle" pointer-events="none" font-family="sans-serif" dy="1.5625" font-size="25" fill="#2A2C34"/><text text-anchor="middle" pointer-events="none" font-family="sans-serif" dy="1.5625" font-size="25" fill="#2A2C34"/><text text-anchor="middle" pointer-events="none" x="0" y="0" font-size="10px" fill="#2A2C34" font-family="sans-serif"> Chris</text><text text-anchor="middle" pointer-events="none" x="0" y="10" font-size="10px" fill="#2A2C34" font-family="sans-serif"> Evans</text></g><g class="node" transform="translate(47.263051212575334,212.70986021614675)"><circle class="outline" cx="0" cy="0" r="25" fill="#57C7E3" stroke="#23b3d7" stroke-width="2px"/><text text-anchor="middle" pointer-events="none" font-family="sans-serif" dy="1.5625" font-size="25" fill="#2A2C34"/><text text-anchor="middle" pointer-events="none" font-family="sans-serif" dy="1.5625" font-size="25" fill="#2A2C34"/><text text-anchor="middle" pointer-events="none" font-family="sans-serif" dy="1.5625" font-size="25" fill="#2A2C34"/><text text-anchor="middle" pointer-events="none" x="0" y="-5" font-size="10px" fill="#2A2C34" font-family="sans-serif"> Samuel</text><text text-anchor="middle" pointer-events="none" x="0" y="5" font-size="10px" fill="#2A2C34" font-family="sans-serif"> L.</text><text text-anchor="middle" pointer-events="none" x="0" y="15" font-size="10px" fill="#2A2C34" font-family="sans-serif"> Jackson</text></g></g></svg>